.
 
http://www.scenetime.com    -  Hottest private tracker on the net. !!!

New release on http://www.scenetime.com

        Seed back for speed


...................................NFO:.................................................                                                                                                     
       
     
     
       
       
     
     
                                         
                                         
                EXVID                    
                                         
         
                                         
         Filled the Archives             
                                         
         
                                         
                With:                    
                                         
         
                                         
                                    
     E240                           
                                    
     SP               (C) 2009      
                                         
     
     
     
                                                                                  
                                                                                   
            Don.Juan.DeMarco.1994.iNTERNAL.DVDRip.XviD-EXViDiNT                     
                                                                                   
                                                                                  
     
                                                                                               
EXViD aims to iNTERNAL those releases which have been lost in the archives.
EXViD aims to PRE non-internal releases which have poor sources and are likely skipped by others. 
http://www.imdb.com/title/tt0112883/
Subtitles: EN, FR, ES
Date: 2012.01

Director: Jeremy Leven

Genres: Comedy | Drama | Romance

Plot:
A psychiatrist must cure a young patient that presents himself as Don Juan, the greatest lover 
in the world. 

Cast:
Marlon Brando	...	Dr. Jack Mickler
Johnny Depp	...	Don Juan
Faye Dunaway	...	Marilyn Mickler
Graldine Pailhas	...	Doa Ana
Bob Dishy	...	Dr. Paul Showalter
Rachel Ticotin	...	Doa Inez
Talisa Soto	...	Doa Julia
Marita Geraghty	...	Woman in Restaurant
Richard C. Sarafian	...	Detective Sy Tobias
Tresa Hughes	...	Grandmother DeMarco
Stephen Singer	...	Dr. Bill Dunsmore
Franc Luz	...	Don Antonio
Carmen Argenziano	...	Don Alfonzo
Jo Champa	...	Sultana Gulbeyaz
Esther Scott	...	Nurse Alvira

Stats:
Format                                   : AVI
Format/Info                              : Audio Video Interleave
File size                                : 702 MiB
Duration                                 : 1h 37mn
Overall bit rate mode                    : Variable
Overall bit rate                         : 1 011 Kbps

Video
ID                                       : 0
Format                                   : MPEG-4 Visual
Format profile                           : Advanced Simple@L5
Format settings, BVOP                    : 2
Format settings, QPel                    : No
Format settings, GMC                     : No warppoints
Format settings, Matrix                  : Default (H.263)
Codec ID                                 : XVID
Codec ID/Hint                            : XviD
Duration                                 : 1h 37mn
Bit rate                                 : 878 Kbps
Width                                    : 576 pixels
Height                                   : 304 pixels
Display aspect ratio                     : 1.895
Frame rate                               : 23.976 fps
Color space                              : YUV
Chroma subsampling                       : 4:2:0
Bit depth                                : 8 bits
Scan type                                : Progressive
Compression mode                         : Lossy
Bits/(Pixel*Frame)                       : 0.209
Stream size                              : 610 MiB (87%)
Writing library                          : XviD 64

Audio
ID                                       : 1
Format                                   : MPEG Audio
Format version                           : Version 1
Format profile                           : Layer 3
Mode                                     : Joint stereo
Mode extension                           : MS Stereo
Codec ID                                 : 55
Codec ID/Hint                            : MP3
Duration                                 : 1h 37mn
Bit rate mode                            : Variable
Bit rate                                 : 120 Kbps
Channel(s)                               : 2 channels
Sampling rate                            : 48.0 KHz
Compression mode                         : Lossy
Stream size                              : 83.6 MiB (12%)
Alignment                                : Aligned on interleaves
Interleave, duration                     : 24 ms (0.58 video frame)
Interleave, preload duration             : 494 ms



Release notes:
Enjoy!

Looking for:
75TB+ Archives
DUTCH/FLEMiSH Archives
                                                                                                    
Greets: CRBS EPiSODE FiCO FLS iLS KLASSiGER LiPSYNC MADE NODLABS RUNNER SPRiNTER      
   

                                                                    ASCII DONE BY XX^NFO 2oo9